<svg id="visual" viewBox="0 0 960 540" width="960" height="540" xmlns="http://www.w3.org/2000/svg" xmlns:xlink="http://www.w3.org/1999/xlink" version="1.1"><rect x="0" y="0" width="960" height="540" fill="#0c0101"></rect><path d="M0 283L107 322L213 311L320 313L427 286L533 330L640 291L747 345L853 328L960 317L960 541L853 541L747 541L640 541L533 541L427 541L320 541L213 541L107 541L0 541Z" fill="#661305"></path><path d="M0 347L107 380L213 383L320 357L427 342L533 326L640 386L747 367L853 371L960 369L960 541L853 541L747 541L640 541L533 541L427 541L320 541L213 541L107 541L0 541Z" fill="#80290a"></path><path d="M0 425L107 393L213 411L320 438L427 404L533 399L640 398L747 412L853 427L960 424L960 541L853 541L747 541L640 541L533 541L427 541L320 541L213 541L107 541L0 541Z" fill="#9a3f0b"></path><path d="M0 454L107 453L213 465L320 446L427 449L533 444L640 444L747 442L853 460L960 461L960 541L853 541L747 541L640 541L533 541L427 541L320 541L213 541L107 541L0 541Z" fill="#b35609"></path></svg>