<svg id="visual" viewBox="0 0 960 540" width="960" height="540" xmlns="http://www.w3.org/2000/svg" xmlns:xlink="http://www.w3.org/1999/xlink" version="1.1"><path d="M0 60L14.5 56.5C29 53 58 46 87.2 49.7C116.3 53.3 145.7 67.7 174.8 75.7C204 83.7 233 85.3 262 80.8C291 76.3 320 65.7 349 67.5C378 69.3 407 83.7 436.2 82.8C465.3 82 494.7 66 523.8 58C553 50 582 50 611 52.7C640 55.3 669 60.7 698 64.2C727 67.7 756 69.3 785.2 66.7C814.3 64 843.7 57 872.8 49.8C902 42.7 931 35.3 945.5 31.7L960 28L960 0L945.5 0C931 0 902 0 872.8 0C843.7 0 814.3 0 785.2 0C756 0 727 0 698 0C669 0 640 0 611 0C582 0 553 0 523.8 0C494.7 0 465.3 0 436.2 0C407 0 378 0 349 0C320 0 291 0 262 0C233 0 204 0 174.8 0C145.7 0 116.3 0 87.2 0C58 0 29 0 14.5 0L0 0Z" fill="#280e01"></path><path d="M0 82L14.5 83.8C29 85.7 58 89.3 87.2 98.3C116.3 107.3 145.7 121.7 174.8 128.8C204 136 233 136 262 127.8C291 119.7 320 103.3 349 100.7C378 98 407 109 436.2 110.8C465.3 112.7 494.7 105.3 523.8 99.8C553 94.3 582 90.7 611 92.5C640 94.3 669 101.7 698 102.7C727 103.7 756 98.3 785.2 91.2C814.3 84 843.7 75 872.8 74C902 73 931 80 945.5 83.5L960 87L960 26L945.5 29.7C931 33.3 902 40.7 872.8 47.8C843.7 55 814.3 62 785.2 64.7C756 67.3 727 65.7 698 62.2C669 58.7 640 53.3 611 50.7C582 48 553 48 523.8 56C494.7 64 465.3 80 436.2 80.8C407 81.7 378 67.3 349 65.5C320 63.7 291 74.3 262 78.8C233 83.3 204 81.7 174.8 73.7C145.7 65.7 116.3 51.3 87.2 47.7C58 44 29 51 14.5 54.5L0 58Z" fill="#2b0e01"></path><path d="M0 114L14.5 117.7C29 121.3 58 128.7 87.2 138.7C116.3 148.7 145.7 161.3 174.8 165C204 168.7 233 163.3 262 156.2C291 149 320 140 349 136.3C378 132.7 407 134.3 436.2 136C465.3 137.7 494.7 139.3 523.8 136.7C553 134 582 127 611 128.8C640 130.7 669 141.3 698 139.5C727 137.7 756 123.3 785.2 116.2C814.3 109 843.7 109 872.8 108.2C902 107.3 931 105.7 945.5 104.8L960 104L960 85L945.5 81.5C931 78 902 71 872.8 72C843.7 73 814.3 82 785.2 89.2C756 96.3 727 101.7 698 100.7C669 99.7 640 92.3 611 90.5C582 88.7 553 92.3 523.8 97.8C494.7 103.3 465.3 110.7 436.2 108.8C407 107 378 96 349 98.7C320 101.3 291 117.7 262 125.8C233 134 204 134 174.8 126.8C145.7 119.7 116.3 105.3 87.2 96.3C58 87.3 29 83.7 14.5 81.8L0 80Z" fill="#2d0f01"></path><path d="M0 174L14.5 175.8C29 177.7 58 181.3 87.2 197.5C116.3 213.7 145.7 242.3 174.8 247.7C204 253 233 235 262 221.5C291 208 320 199 349 199.8C378 200.7 407 211.3 436.2 226.7C465.3 242 494.7 262 523.8 272.8C553 283.7 582 285.3 611 275.3C640 265.3 669 243.7 698 232.8C727 222 756 222 785.2 222C814.3 222 843.7 222 872.8 221.2C902 220.3 931 218.7 945.5 217.8L960 217L960 102L945.5 102.8C931 103.7 902 105.3 872.8 106.2C843.7 107 814.3 107 785.2 114.2C756 121.3 727 135.7 698 137.5C669 139.3 640 128.7 611 126.8C582 125 553 132 523.8 134.7C494.7 137.3 465.3 135.7 436.2 134C407 132.3 378 130.7 349 134.3C320 138 291 147 262 154.2C233 161.3 204 166.7 174.8 163C145.7 159.3 116.3 146.7 87.2 136.7C58 126.7 29 119.3 14.5 115.7L0 112Z" fill="#300f02"></path><path d="M0 212L14.5 214.7C29 217.3 58 222.7 87.2 237C116.3 251.3 145.7 274.7 174.8 275.5C204 276.3 233 254.7 262 242C291 229.3 320 225.7 349 227.5C378 229.3 407 236.7 436.2 253C465.3 269.3 494.7 294.7 523.8 304.5C553 314.3 582 308.7 611 298.7C640 288.7 669 274.3 698 268.2C727 262 756 264 785.2 265C814.3 266 843.7 266 872.8 264.2C902 262.3 931 258.7 945.5 256.8L960 255L960 215L945.5 215.8C931 216.7 902 218.3 872.8 219.2C843.7 220 814.3 220 785.2 220C756 220 727 220 698 230.8C669 241.7 640 263.3 611 273.3C582 283.3 553 281.7 523.8 270.8C494.7 260 465.3 240 436.2 224.7C407 209.3 378 198.7 349 197.8C320 197 291 206 262 219.5C233 233 204 251 174.8 245.7C145.7 240.3 116.3 211.7 87.2 195.5C58 179.3 29 175.7 14.5 173.8L0 172Z" fill="#330f02"></path><path d="M0 249L14.5 250C29 251 58 253 87.2 265.7C116.3 278.3 145.7 301.7 174.8 307C204 312.3 233 299.7 262 290.7C291 281.7 320 276.3 349 271.8C378 267.3 407 263.7 436.2 279C465.3 294.3 494.7 328.7 523.8 344C553 359.3 582 355.7 611 343C640 330.3 669 308.7 698 300.5C727 292.3 756 297.7 785.2 300.3C814.3 303 843.7 303 872.8 301.3C902 299.7 931 296.3 945.5 294.7L960 293L960 253L945.5 254.8C931 256.7 902 260.3 872.8 262.2C843.7 264 814.3 264 785.2 263C756 262 727 260 698 266.2C669 272.3 640 286.7 611 296.7C582 306.7 553 312.3 523.8 302.5C494.7 292.7 465.3 267.3 436.2 251C407 234.7 378 227.3 349 225.5C320 223.7 291 227.3 262 240C233 252.7 204 274.3 174.8 273.5C145.7 272.7 116.3 249.3 87.2 235C58 220.7 29 215.3 14.5 212.7L0 210Z" fill="#411409"></path><path d="M0 325L14.5 329.5C29 334 58 343 87.2 358.3C116.3 373.7 145.7 395.3 174.8 394.5C204 393.7 233 370.3 262 363.2C291 356 320 365 349 362.2C378 359.3 407 344.7 436.2 353.7C465.3 362.7 494.7 395.3 523.8 409.8C553 424.3 582 420.7 611 409.8C640 399 669 381 698 380C727 379 756 395 785.2 400.3C814.3 405.7 843.7 400.3 872.8 391.3C902 382.3 931 369.7 945.5 363.3L960 357L960 291L945.5 292.7C931 294.3 902 297.7 872.8 299.3C843.7 301 814.3 301 785.2 298.3C756 295.7 727 290.3 698 298.5C669 306.7 640 328.3 611 341C582 353.7 553 357.3 523.8 342C494.7 326.7 465.3 292.3 436.2 277C407 261.7 378 265.3 349 269.8C320 274.3 291 279.7 262 288.7C233 297.7 204 310.3 174.8 305C145.7 299.7 116.3 276.3 87.2 263.7C58 251 29 249 14.5 248L0 247Z" fill="#501a0e"></path><path d="M0 384L14.5 385C29 386 58 388 87.2 398C116.3 408 145.7 426 174.8 422.3C204 418.7 233 393.3 262 387.8C291 382.3 320 396.7 349 399.3C378 402 407 393 436.2 405.7C465.3 418.3 494.7 452.7 523.8 467.2C553 481.7 582 476.3 611 459.2C640 442 669 413 698 407.5C727 402 756 420 785.2 429C814.3 438 843.7 438 872.8 431.8C902 425.7 931 413.3 945.5 407.2L960 401L960 355L945.5 361.3C931 367.7 902 380.3 872.8 389.3C843.7 398.3 814.3 403.7 785.2 398.3C756 393 727 377 698 378C669 379 640 397 611 407.8C582 418.7 553 422.3 523.8 407.8C494.7 393.3 465.3 360.7 436.2 351.7C407 342.7 378 357.3 349 360.2C320 363 291 354 262 361.2C233 368.3 204 391.7 174.8 392.5C145.7 393.3 116.3 371.7 87.2 356.3C58 341 29 332 14.5 327.5L0 323Z" fill="#5f1f12"></path><path d="M0 541L14.5 541C29 541 58 541 87.2 541C116.3 541 145.7 541 174.8 541C204 541 233 541 262 541C291 541 320 541 349 541C378 541 407 541 436.2 541C465.3 541 494.7 541 523.8 541C553 541 582 541 611 541C640 541 669 541 698 541C727 541 756 541 785.2 541C814.3 541 843.7 541 872.8 541C902 541 931 541 945.5 541L960 541L960 399L945.5 405.2C931 411.3 902 423.7 872.8 429.8C843.7 436 814.3 436 785.2 427C756 418 727 400 698 405.5C669 411 640 440 611 457.2C582 474.3 553 479.7 523.8 465.2C494.7 450.7 465.3 416.3 436.2 403.7C407 391 378 400 349 397.3C320 394.7 291 380.3 262 385.8C233 391.3 204 416.7 174.8 420.3C145.7 424 116.3 406 87.2 396C58 386 29 384 14.5 383L0 382Z" fill="#6f2515"></path></svg>